<svg id="Layer_1" data-name="Layer 1" xmlns="http://www.w3.org/2000/svg" viewBox="0 0 3603.7 3971.21"><defs><style>.cls-1{fill:#8cc84b;}</style></defs><title>nodejs</title><path class="cls-1" d="M903.75-768.86c98.46-56.36,226.72-56.62,325.1,0Q1971.29-349.34,2713.79,69.9c93.08,52.43,155.34,156,154.39,263.27V2015.8c.69,111.69-67.72,217.76-165.92,269q-740,417.19-1479.65,834.74c-100.5,57.46-231.33,53-328.69-9.14q-221.85-128.61-444-256.7c-30.23-18-64.3-32.36-85.64-61.67,18.87-25.43,52.6-28.6,80-39.7,61.74-19.63,118.44-51.14,175.15-81.72,14.35-9.82,31.86-6.06,45.6,2.73,126.48,72.51,251.83,147.13,378.73,218.95,27.07,15.63,54.48-5.12,77.62-18q726.15-410.4,1452.83-819.87c17.93-8.63,27.84-27.67,26.39-47.31q.51-832.6.17-1665.3c2.05-22.29-10.85-42.78-31-51.9Q1832.39-125.4,1095.29-541.19a51.2,51.2,0,0,0-57.9-.08Q300.1-125.75-436.95,290.13c-20.09,9.13-33.57,29.29-31.17,51.66q.12,832.61,0,1665.38a47.07,47.07,0,0,0,26.73,46.72q196.74,111.57,393.75,222.37c74,39.8,164.73,63.44,246.2,32.95,71.89-25.78,122.29-99.15,120.91-175.48.68-551.83-.33-1103.74.51-1655.48-1.79-24.49,21.45-44.73,45.26-42.43,63-.42,126.14-.85,189.16.17,26.31-.59,44.41,25.78,41.16,50.47-.26,555.32.68,1110.65-.43,1666,.17,148-60.63,309-197.53,381.45C229,2621.25,20.51,2602.72-146.1,2519c-144.24-72-281.89-157-423.56-234.08-98.46-51-166.53-157.45-165.84-269V333.17c-1-109.47,63.71-214.94,159.69-266.61Q164-351,903.75-768.86Z" transform="translate(735.51 811.23)"/><path class="cls-1" d="M1334.05,396.71c215.13-13.84,445.43-8.2,639,97.78,149.88,81.21,233,251.66,235.62,418.17-4.19,22.46-27.67,34.85-49.11,33.31-62.42-.09-124.85.84-187.26-.43-26.48,1-41.87-23.39-45.19-46.8-17.93-79.67-61.38-158.58-136.37-197C1675.63,644.1,1542.16,647,1416.64,648.2c-91.64,4.87-190.18,12.8-267.81,66.69-59.6,40.82-77.71,123.22-56.44,189.58,20.06,47.65,75.06,63,120.07,77.19,259.25,67.81,534,61.06,788.28,150.29,105.28,36.38,208.28,107.1,244.31,217.34,47.14,147.74,26.48,324.34-78.63,442.94-85.25,97.61-209.4,150.73-333.23,179.59-164.73,36.73-335.68,37.66-503,21.35-157.31-17.93-321-59.26-442.44-166.44-103.84-90.17-154.56-230.65-149.53-366.25,1.2-22.9,24-38.86,45.94-37,62.85-.51,125.71-.68,188.56.08,25.11-1.8,43.72,19.9,45,43.56,11.6,75.91,40.12,155.58,106.32,200.59,127.74,82.41,288,76.77,434.3,79.07,121.18-5.37,257.22-7,356.11-87.09,52.18-45.69,67.63-122.12,53.53-187.87-15.27-55.51-73.35-81.38-123.22-98.3-255.92-81-533.72-51.58-787.17-143.13-102.9-36.36-202.4-105.12-241.93-210.83C760.54,870,785.82,684.92,902,570.31c113.23-114,276.69-157.9,432.1-173.61Z" transform="translate(735.51 811.23)"/></svg>