<svg id="Layer_1" data-name="Layer 1" xmlns="http://www.w3.org/2000/svg" viewBox="0 0 100 100"><defs><style>.cls-1{fill:none;}.cls-1,.cls-2{stroke:#fff;stroke-miterlimit:10;stroke-width:2px;}.cls-2{fill:#fff;}</style></defs><title>plan</title><path class="cls-1" d="M19.35,66.84H37.8a8.67,8.67,0,0,1,8.67,8.67V85.74a0,0,0,0,1,0,0H10.68a0,0,0,0,1,0,0V75.51A8.67,8.67,0,0,1,19.35,66.84Z"/><path class="cls-1" d="M25.22,41.83h6.72a3.48,3.48,0,0,1,3.48,3.48V56.75A4.26,4.26,0,0,1,31.16,61H26a4.26,4.26,0,0,1-4.26-4.26V45.31A3.48,3.48,0,0,1,25.22,41.83Z"/><path class="cls-1" d="M67,66.84H85.44a8.67,8.67,0,0,1,8.67,8.67V85.74a0,0,0,0,1,0,0H58.32a0,0,0,0,1,0,0V75.51A8.67,8.67,0,0,1,67,66.84Z"/><path class="cls-1" d="M72.86,41.83h6.72a3.48,3.48,0,0,1,3.48,3.48V56.75A4.26,4.26,0,0,1,78.8,61H73.63a4.26,4.26,0,0,1-4.26-4.26V45.31A3.48,3.48,0,0,1,72.86,41.83Z"/><path class="cls-1" d="M12.83,14.73V30.31a.78.78,0,0,0,.78.78h11.6a.78.78,0,0,1,.71.45l3,6.38a.79.79,0,0,0,1.45,0L33,31.22a.8.8,0,0,1,.73-.49H54.1a.78.78,0,0,0,.78-.77V14.73A.78.78,0,0,0,54.1,14H13.61A.78.78,0,0,0,12.83,14.73Z"/><path class="cls-2" d="M39.92,10.4V26.65a.93.93,0,0,0,.93.92H65.11a.93.93,0,0,1,.76.4L72,36.56a.94.94,0,0,0,1.61-.14l4.12-8.49a1,1,0,0,1,.85-.53h11a.93.93,0,0,0,.93-.92V10.4a.93.93,0,0,0-.93-.93H40.85A.93.93,0,0,0,39.92,10.4Z"/></svg>