<svg id="Layer_1" data-name="Layer 1" xmlns="http://www.w3.org/2000/svg" viewBox="0 0 201.74 203.12"><defs><style>.cls-1{fill:none;}.cls-1,.cls-2{stroke:#fff;stroke-miterlimit:10;stroke-width:2px;}.cls-2,.cls-3{fill:#fff;}</style></defs><title>build</title><path class="cls-1" d="M9.67,58.87H28.12a8.67,8.67,0,0,1,8.67,8.67V77.77a0,0,0,0,1,0,0H1a0,0,0,0,1,0,0V67.54A8.67,8.67,0,0,1,9.67,58.87Z"/><path class="cls-1" d="M15.54,33.85h6.72a3.48,3.48,0,0,1,3.48,3.48V48.78A4.26,4.26,0,0,1,21.48,53H16.31a4.26,4.26,0,0,1-4.26-4.26V37.34A3.48,3.48,0,0,1,15.54,33.85Z"/><path class="cls-1" d="M57.31,58.87H75.77a8.67,8.67,0,0,1,8.67,8.67V77.77a0,0,0,0,1,0,0H48.64a0,0,0,0,1,0,0V67.54A8.67,8.67,0,0,1,57.31,58.87Z"/><path class="cls-1" d="M63.18,33.85H69.9a3.48,3.48,0,0,1,3.48,3.48V48.78A4.26,4.26,0,0,1,69.12,53H64a4.26,4.26,0,0,1-4.26-4.26V37.34A3.48,3.48,0,0,1,63.18,33.85Z"/><path class="cls-1" d="M12.83,14.73V30.31a.78.78,0,0,0,.78.78h11.6a.78.78,0,0,1,.71.45l3,6.38a.79.79,0,0,0,1.45,0L33,31.22a.8.8,0,0,1,.73-.49H54.1a.78.78,0,0,0,.78-.77V14.73A.78.78,0,0,0,54.1,14H13.61A.78.78,0,0,0,12.83,14.73Z" transform="translate(-9.68 -7.97)"/><path class="cls-2" d="M39.92,10.4V26.65a.93.93,0,0,0,.93.92H65.11a.93.93,0,0,1,.76.4L72,36.56a.94.94,0,0,0,1.61-.14l4.12-8.49a1,1,0,0,1,.85-.53h11a.93.93,0,0,0,.93-.92V10.4a.93.93,0,0,0-.93-.93H40.85A.93.93,0,0,0,39.92,10.4Z" transform="translate(-9.68 -7.97)"/><rect class="cls-1" x="119.39" y="1" width="81.35" height="76.35" rx="2.11"/><line class="cls-2" x1="119.91" y1="8.95" x2="201.25" y2="8.95"/><circle class="cls-3" cx="124.81" cy="5.1" r="1.65"/><circle class="cls-3" cx="130.03" cy="5.1" r="1.65"/><circle class="cls-3" cx="135.24" cy="5.1" r="1.65"/><rect class="cls-3" x="123.16" y="23.13" width="35.93" height="3.52" rx="1.46"/><rect class="cls-3" x="123.16" y="29.78" width="35.93" height="3.52" rx="1.46"/><rect class="cls-3" x="123.16" y="36.79" width="25.45" height="3.52" rx="1.46"/><rect class="cls-1" x="166.25" y="23.13" width="27.34" height="44.77" rx="2.36"/><line class="cls-1" x1="167.06" y1="23.99" x2="192.4" y2="67.9"/><line class="cls-1" x1="192.53" y1="23.78" x2="167.22" y2="67.18"/><circle class="cls-1" cx="40.32" cy="163.95" r="38.17"/><path class="cls-3" d="M38.83,187.9,23.41,172.77l15.13-15.41a1.45,1.45,0,0,0,0-2.05,1.43,1.43,0,0,0-2.05,0L20.36,171.74a1.45,1.45,0,0,0-.4,1.07,1.42,1.42,0,0,0,.42,1.05L36.8,190a1.45,1.45,0,1,0,2-2.07Z" transform="translate(-9.68 -7.97)"/><path class="cls-3" d="M61.6,157.37,77,172.5,61.89,187.92A1.45,1.45,0,1,0,64,190l16.1-16.42a1.45,1.45,0,0,0,.41-1.06,1.4,1.4,0,0,0-.43-1.06l-16.41-16.1a1.45,1.45,0,1,0-2,2.06Z" transform="translate(-9.68 -7.97)"/><rect class="cls-3" x="48.75" y="153.53" width="2.5" height="38.21" rx="1.16" transform="translate(44.83 -15.01) rotate(17.59)"/></svg>