<svg id="Layer_1" data-name="Layer 1" xmlns="http://www.w3.org/2000/svg" viewBox="0 0 100 100"><defs><style>.cls-1{fill:none;stroke:#fff;stroke-miterlimit:10;stroke-width:2px;}.cls-2{fill:#fff;}</style></defs><title>build</title><circle class="cls-1" cx="50" cy="51.92" r="38.17"/><path class="cls-2" d="M38.83,67.9,23.41,52.77,38.54,37.36a1.45,1.45,0,0,0,0-2,1.43,1.43,0,0,0-2.05,0L20.36,51.74a1.45,1.45,0,0,0-.4,1.07,1.42,1.42,0,0,0,.42,1L36.8,70a1.45,1.45,0,0,0,2-2.07Z"/><path class="cls-2" d="M61.6,37.37,77,52.5,61.89,67.92A1.45,1.45,0,1,0,64,70l16.1-16.42a1.45,1.45,0,0,0,.41-1.06A1.4,1.4,0,0,0,80,51.41L63.63,35.31a1.45,1.45,0,1,0-2,2.06Z"/><rect class="cls-2" x="48.75" y="33.53" width="2.5" height="38.21" rx="1.16" transform="translate(18.25 -12.65) rotate(17.59)"/></svg>