<svg xmlns="http://www.w3.org/2000/svg" viewBox="0 0 588.1 398.36"><defs><style>.cls-1,.cls-10,.cls-9{fill:#fff;}.cls-1,.cls-10,.cls-11,.cls-2,.cls-4,.cls-5,.cls-6,.cls-7,.cls-9{stroke:#4597d3;stroke-miterlimit:10;}.cls-1,.cls-2,.cls-4{stroke-width:2px;}.cls-2,.cls-5,.cls-7{fill:none;}.cls-11,.cls-3,.cls-4,.cls-6{fill:#4597d3;}.cls-6{stroke-width:0.25px;}.cls-7,.cls-9{stroke-width:1.5px;}.cls-8{fill:#4596d2;}.cls-11{stroke-width:0.5px;}</style></defs><title>webdesigner</title><g id="website"><rect class="cls-1" x="44.19" y="112.34" width="505.93" height="284.58" rx="13.04"/><line class="cls-2" x1="44.19" y1="140.23" x2="550.12" y2="140.23"/><rect class="cls-2" x="65.01" y="120.82" width="38.7" height="13.06" rx="5.7"/><rect class="cls-1" x="98.43" y="185.67" width="139.56" height="150.75" rx="6.38"/><rect class="cls-1" x="260.61" y="185.67" width="232.91" height="26.38" rx="11.51"/><rect class="cls-1" x="262.75" y="226.05" width="144.66" height="14.1" rx="6.15"/><rect class="cls-3" x="262.75" y="254.63" width="42.8" height="2.48" rx="1.08"/><rect class="cls-3" x="396.53" y="264.1" width="32.39" height="2.48" rx="1.08"/><rect class="cls-3" x="337.12" y="273.57" width="21.87" height="2.48" rx="1.08"/><rect class="cls-3" x="311.33" y="254.63" width="56.4" height="2.48" rx="1.08"/><rect class="cls-3" x="374.4" y="254.63" width="93.89" height="2.48" rx="1.08"/><rect class="cls-3" x="262.75" y="264.1" width="129.14" height="2.48" rx="1.08"/><rect class="cls-3" x="262.75" y="273.57" width="69.12" height="2.48" rx="1.08"/><rect class="cls-4" x="262.75" y="286.73" width="64.57" height="10.89" rx="4.75"/><rect class="cls-4" x="492.45" y="121.91" width="40.41" height="10.89" rx="4.75"/></g><g id="mobile"><rect class="cls-1" x="1" y="233.67" width="76.37" height="163.69" rx="9.28"/><line class="cls-2" x1="1" y1="380.91" x2="77.37" y2="380.91"/><circle class="cls-5" cx="39.18" cy="389.05" r="5.03"/><line class="cls-2" x1="1" y1="247.74" x2="77.37" y2="247.74"/><rect class="cls-6" x="20.51" y="239.31" width="37.34" height="3.2" rx="1.4"/><circle class="cls-7" cx="14.77" cy="307.13" r="8.43"/><rect class="cls-8" x="27.2" y="298.7" width="41.81" height="2.56" rx="1.12"/><rect class="cls-8" x="27.2" y="303.76" width="34.98" height="2.56" rx="1.12"/><rect class="cls-8" x="27.2" y="308.83" width="21.24" height="2.56" rx="1.12"/><rect class="cls-1" x="449.65" y="233.67" width="137.45" height="163.69" rx="5.72"/><rect class="cls-1" x="449.65" y="244.21" width="137.45" height="143.88"/><rect class="cls-9" x="499.06" y="269.3" width="38.12" height="38.12" rx="5.46"/><rect class="cls-9" x="469.01" y="318.44" width="100.56" height="4.93" rx="2.15"/><rect class="cls-9" x="478.71" y="328.09" width="81.16" height="4.93" rx="2.15"/><rect class="cls-3" x="521.51" y="344.53" width="17.86" height="1.3" rx="0.57"/><rect class="cls-3" x="498.77" y="344.53" width="21.24" height="1.3" rx="0.57"/><rect class="cls-3" x="511.16" y="340.9" width="35.79" height="1.3" rx="0.57"/><rect class="cls-3" x="491.63" y="340.9" width="18.76" height="1.3" rx="0.57"/><rect class="cls-3" x="511.16" y="350.81" width="19.29" height="4.55" rx="1.98"/></g><g id="design"><rect class="cls-1" x="308.02" y="12.78" width="167.72" height="152.89" rx="9.64"/><rect class="cls-1" x="323.63" y="56.14" width="18.73" height="18.73" rx="2.52"/><rect class="cls-1" x="323.63" y="115.46" width="18.73" height="18.73" rx="2.52"/><rect class="cls-1" x="323.63" y="85.8" width="18.73" height="18.73" rx="2.52"/><line class="cls-2" x1="449.74" y1="60.15" x2="449.74" y2="136.08"/><circle class="cls-1" cx="410.42" cy="96.75" r="39.33"/><rect class="cls-10" x="367.33" y="91.4" width="7.53" height="7.53" rx="0.82"/><rect class="cls-10" x="405.42" y="53.67" width="7.53" height="7.53" rx="0.82"/><rect class="cls-10" x="445.98" y="92.99" width="7.53" height="7.53" rx="0.82"/><rect class="cls-10" x="405.8" y="132.32" width="7.53" height="7.53" rx="0.82"/><circle class="cls-6" cx="449.66" cy="60.39" r="2.97"/><circle class="cls-6" cx="449.66" cy="135.28" r="2.97"/><line class="cls-2" x1="308.02" y1="26.55" x2="475.75" y2="26.55"/><circle class="cls-11" cx="324.45" cy="19.77" r="3.23"/><circle class="cls-11" cx="336.27" cy="19.77" r="3.23"/><circle class="cls-11" cx="346.76" cy="19.77" r="3.23"/><rect class="cls-1" x="114.17" y="1" width="142.66" height="164.32" rx="10.31"/><line class="cls-2" x1="114.17" y1="16.55" x2="256.83" y2="16.55"/><circle class="cls-6" cx="125.81" cy="10.18" r="2.51"/><circle class="cls-6" cx="133.55" cy="10.18" r="2.51"/><circle class="cls-6" cx="141.46" cy="10.18" r="2.51"/><rect class="cls-3" x="126.34" y="39.02" width="11.44" height="1.68" rx="0.73"/><rect class="cls-3" x="140.67" y="39.02" width="21.09" height="1.68" rx="0.73"/><rect class="cls-3" x="164.48" y="39.02" width="40.62" height="1.68" rx="0.73"/><rect class="cls-3" x="140.32" y="48.61" width="11.72" height="1.68" rx="0.73"/><rect class="cls-3" x="155" y="48.61" width="43.73" height="1.68" rx="0.73"/><rect class="cls-3" x="201.13" y="48.61" width="14.45" height="1.68" rx="0.73"/><rect class="cls-3" x="140.32" y="58.84" width="13.9" height="1.68" rx="0.73"/><rect class="cls-3" x="156.19" y="58.84" width="33.01" height="1.68" rx="0.73"/><rect class="cls-3" x="191.13" y="58.84" width="23.11" height="1.68" rx="0.73"/><rect class="cls-3" x="139.96" y="69.03" width="10.47" height="1.68" rx="0.73"/><rect class="cls-3" x="152.51" y="69.03" width="31.98" height="1.68" rx="0.73"/><rect class="cls-3" x="186.95" y="69.03" width="41.86" height="1.68" rx="0.73"/><rect class="cls-3" x="237.01" y="109.94" width="21.09" height="1.68" rx="0.73" transform="translate(397.47 220.73) rotate(180)"/><rect class="cls-3" x="256.31" y="109.94" width="40.62" height="1.68" rx="0.73" transform="translate(455.58 220.73) rotate(-180)"/><rect class="cls-3" x="261.83" y="99.55" width="43.73" height="1.68" rx="0.73" transform="translate(469.75 199.95) rotate(-180)"/><rect class="cls-3" x="236.6" y="99.55" width="22.83" height="1.68" rx="0.73" transform="translate(398.39 199.95) rotate(-180)"/><rect class="cls-3" x="306.96" y="89.16" width="13.9" height="1.68" rx="0.73" transform="translate(530.17 179.17) rotate(180)"/><rect class="cls-3" x="271.97" y="89.16" width="33.01" height="1.68" rx="0.73" transform="translate(479.31 179.17) rotate(-180)"/><rect class="cls-3" x="237.21" y="89.16" width="32.83" height="1.68" rx="0.73" transform="translate(409.61 179.17) rotate(-180)"/><rect class="cls-3" x="310.78" y="79.58" width="10.47" height="1.68" rx="0.73" transform="translate(534.38 160.03) rotate(180)"/><rect class="cls-3" x="276.72" y="79.58" width="31.98" height="1.68" rx="0.73" transform="translate(487.77 160.03) rotate(-180)"/><rect class="cls-3" x="237.61" y="79.58" width="36.66" height="1.68" rx="0.73" transform="translate(414.22 160.03) rotate(-180)"/><rect class="cls-3" x="125.99" y="48.61" width="11.44" height="1.68" rx="0.73"/><rect class="cls-3" x="125.99" y="58.84" width="11.44" height="1.68" rx="0.73"/><rect class="cls-3" x="125.63" y="69.03" width="11.44" height="1.68" rx="0.73"/><rect class="cls-3" x="125.63" y="78.76" width="11.44" height="1.68" rx="0.73"/><rect class="cls-3" x="125.24" y="88.34" width="11.44" height="1.68" rx="0.73"/><rect class="cls-3" x="124.62" y="98.73" width="11.44" height="1.68" rx="0.73"/><rect class="cls-3" x="124.62" y="109.12" width="11.44" height="1.68" rx="0.73"/><rect class="cls-3" x="237.01" y="120.36" width="38.35" height="1.68" rx="0.73" transform="translate(414.73 241.57) rotate(180)"/><rect class="cls-3" x="278.8" y="120.36" width="28.52" height="1.68" rx="0.73" transform="translate(488.48 241.57) rotate(180)"/><rect class="cls-3" x="124.62" y="119.54" width="11.44" height="1.68" rx="0.73"/></g></svg>